:SAMPLES-PER-SECOND 30
:FULLY-SPECIFIED
:DEGREES
410
root  9.03532 38.8645 22.2677 168.577 60.7149 172.471
RightUpLeg  20.9883 -19.1904 -13.9854
RightLeg  13.7489 -8.40206 -0.749383
RightFoot  -15.0744 0.356925 14.1095
RightToes  4.01633e-009 0 -3.6325e-017
Spine  4.03823 0.516076 2.48039
Spine1  13.2548 2.41135 -6.47893
HEad  6.54483 -4.71894 -1.5784
LeftShoulder1  -0.165738 3.94227 -31.6805
LeftArm  -4.02354 17.1678 -38.9368
LeftForeArm  24.1047 -13.2004 -6.36834
LeftHand  -0.00183716 3.15643 -0.842557
RightShoulder  -0.738782 -5.65492 27.6921
RightArm  15.5351 -4.57992 49.4346
RightForeArm  8.37395 11.2036 7.12852
RightHand  -0.302394 0.982136 -5.63356
LeftUpLeg  -12.5834 7.45293 -5.34807
LeftLeg  14.5073 5.53368 0.831166
LeftFoot  3.56476 -1.11448 8.33721
LeftToes  -1.95724e-009 9.62483e-011 3.51777e-011
411
root  9.66964 38.8572 21.6894 167.627 61.5005 171.442
RightUpLeg  18.7055 -19.6448 -15.4914
RightLeg  20.4214 -4.8053 -2.42436
RightFoot  -13.3521 0.225412 18.9789
RightToes  4.01633e-009 0 -3.6325e-017
Spine  4.37715 1.10844 2.91268
Spine1  12.5489 3.35763 -8.67137
HEad  6.9367 -5.45209 -1.95319
LeftShoulder1  -0.219993 4.08477 -31.7459
LeftArm  -5.68983 17.0105 -38.8032
LeftForeArm  24.7096 -11.8362 -6.38917
LeftHand  0.0148972 2.606 -1.19701
RightShoulder  -0.693258 -5.54555 27.2864
RightArm  14.6491 -5.36369 49.8345
RightForeArm  8.01816 10.3973 7.20326
RightHand  -0.290912 0.451924 -5.86008
LeftUpLeg  -11.7802 7.549 -5.65406
LeftLeg  15.9413 6.39614 0.916019
LeftFoot  1.58346 -0.983948 8.57829
LeftToes  -1.95724e-009 9.62483e-011 3.51777e-011
412
root  10.3306 38.8606 21.1599 165.904 61.9097 169.599
RightUpLeg  14.7186 -15.3629 -15.6142
RightLeg  28.9333 -5.60056 -3.55864
RightFoot  -9.52971 -0.367148 21.6445
RightToes  4.01633e-009 0 -3.6325e-017
Spine  4.77307 1.62561 1.50608
Spine1  11.9184 3.66104 -9.0532
HEad  6.66634 -5.84732 -2.58396
LeftShoulder1  -0.232314 4.1202 -31.5544
LeftArm  -5.65803 17.8792 -39.1385
LeftForeArm  23.4333 -12.3309 -6.22773
LeftHand  0.0170145 2.54358 -0.854013
RightShoulder  -0.682431 -5.52464 27.0821
RightArm  15.511 -5.00963 49.5297
RightForeArm  7.57866 10.173 7.50175
RightHand  -0.322314 1.03323 -5.95382
LeftUpLeg  -10.4213 7.01763 -6.2353
LeftLeg  16.4404 7.59543 0.79159
LeftFoot  -0.197006 -0.813123 8.3287
LeftToes  -1.95724e-009 9.62483e-011 3.51777e-011
413
root  10.9872 38.9643 20.6227 164.545 62.5546 168.289
RightUpLeg  9.56072 -11.8246 -15.6622
RightLeg  38.4715 -4.63037 -4.19547
RightFoot  -1.4292 -1.26068 14.8078
RightToes  4.01633e-009 0 -3.6325e-017
Spine  5.42081 1.92938 0.583642
Spine1  11.0178 3.83755 -8.90705
HEad  4.89747 -5.49231 -1.86789
LeftShoulder1  -0.230327 4.10975 -31.8201
LeftArm  -3.85765 18.2585 -38.8196
LeftForeArm  21.6784 -13.5825 -6.22949
LeftHand  0.0150084 2.66709 -0.759808
RightShoulder  -0.625825 -5.38956 26.4797
RightArm  15.9658 -4.727 49.7173
RightForeArm  8.51443 11.1691 7.24605
RightHand  -0.326789 0.456962 -6.55672
LeftUpLeg  -8.2509 6.50072 -6.45514
LeftLeg  15.5197 9.03524 0.419054
LeftFoot  -1.39778 -0.682631 7.93239
LeftToes  -1.95724e-009 9.62483e-011 3.51777e-011
414
root  11.6031 38.958 20.1651 163.283 62.5992 167.23
RightUpLeg  4.89391 -9.19435 -15.8335
RightLeg  46.4016 -2.74581 -3.36055
RightFoot  5.24892 -1.41513 9.69628
RightToes  4.01633e-009 0 -3.6325e-017
Spine  5.84596 1.74864 -0.698802
Spine1  11.0287 3.523 -9.26388
HEad  3.16374 -4.69295 -1.87208
LeftShoulder1  -0.109502 3.79837 -31.1183
LeftArm  -1.36966 18.628 -38.8167
LeftForeArm  20.3014 -15.394 -6.00996
LeftHand  0.0127363 2.5339 -0.849395
RightShoulder  -0.624582 -5.35443 27.0315
RightArm  17.0109 -3.43688 49.3045
RightForeArm  7.67942 12.7212 6.90937
RightHand  -0.301991 0.40711 -6.12368
LeftUpLeg  -6.59566 5.93533 -6.82911
LeftLeg  15.597 9.8869 0.292
LeftFoot  -2.84943 -0.559463 7.75607
LeftToes  -1.95724e-009 9.62483e-011 3.51777e-011
415
root  12.1593 38.8892 19.7882 162.54 62.545 166.463
RightUpLeg  0.62674 -6.84108 -15.6842
RightLeg  52.1265 0.214774 -0.0634488
RightFoot  3.79309 -1.42316 10.8745
RightToes  4.01633e-009 0 -3.6325e-017
Spine  6.27442 1.55817 -1.93512
Spine1  11.0732 3.10048 -9.44246
HEad  1.4389 -4.35352 -1.62583
LeftShoulder1  -0.098689 3.76945 -31.061
LeftArm  -0.02093 17.2435 -38.5721
LeftForeArm  20.5051 -15.8944 -6.01003
LeftHand  0.00839963 2.30903 -0.81737
RightShoulder  -0.637028 -5.38735 27.115
RightArm  16.9987 -2.02101 49.4751
RightForeArm  4.79843 13.9822 6.50302
RightHand  -0.348191 1.44137 -6.07066
LeftUpLeg  -5.80147 5.85394 -7.20972
LeftLeg  16.484 10.1565 0.385956
LeftFoot  -4.46063 -0.431163 7.607
LeftToes  -1.95724e-009 9.62483e-011 3.51777e-011
416
root  12.7285 38.8849 19.4153 162.548 62.3036 166.552
RightUpLeg  -3.29606 -4.98827 -14.9479
RightLeg  55.4624 2.44297 3.37322
RightFoot  2.58302 -1.36333 11.293
RightToes  4.01633e-009 0 -3.6325e-017
Spine  7.11749 1.37209 -2.68839
Spine1  10.3776 2.61157 -9.05931
HEad  0.757935 -4.31781 -1.53171
LeftShoulder1  -0.0698753 3.6903 -31.3584
LeftArm  -0.612003 15.2037 -38.4973
LeftForeArm  21.8104 -15.3827 -6.15049
LeftHand  -0.00280209 2.41648 -0.419453
RightShoulder  -0.631221 -5.40329 26.5198
RightArm  16.0235 -1.99924 50.2074
RightForeArm  3.40418 16.4083 5.52074
RightHand  -0.368612 2.05489 -5.93556
LeftUpLeg  -4.62161 5.92284 -7.22938
LeftLeg  16.6711 9.95815 0.316156
LeftFoot  -5.7507 -0.325863 7.37567
LeftToes  -1.95724e-009 9.62483e-011 3.51777e-011
417
root  13.329 38.9165 19.0649 163.276 61.924 167.358
RightUpLeg  -6.73412 -3.3762 -13.6159
RightLeg  56.198 2.66571 3.86483
RightFoot  1.05505 -1.27422 11.7405
RightToes  4.01633e-009 0 -3.6325e-017
Spine  7.53634 1.06335 -3.51291
Spine1  10.0015 1.98587 -8.31697
HEad  0.378244 -4.72464 -1.58008
LeftShoulder1  -0.0764369 3.7072 -31.2532
LeftArm  -2.03185 12.8415 -38.7514
LeftForeArm  23.0139 -14.3442 -6.36401
LeftHand  -0.00461 1.98559 -0.218161
RightShoulder  -0.616414 -5.36496 26.3994
RightArm  16.4703 -1.4529 50.5357
RightForeArm  1.51371 18.6021 5.08711
RightHand  -0.391314 1.82498 -6.44427
LeftUpLeg  -3.26234 6.07896 -6.93356
LeftLeg  16.3956 9.28758 0.222003
LeftFoot  -6.88825 -0.235117 7.0988
LeftToes  -1.95724e-009 9.62483e-011 3.51777e-011
